<?xml version="1.0" encoding="UTF-8"?>
<svg version="1.1" xmlns="http://www.w3.org/2000/svg" width="180" height="180">
<path d="M0 0 C2.25344849 1.52296448 2.25344849 1.52296448 4.45751953 3.63110352 C5.32258118 4.45216583 6.18764282 5.27322815 7.07891846 6.11917114 C8.05448785 7.07754195 9.02807433 8.03793412 10 9 C10.52933891 9.51995922 11.05867783 10.03991844 11.60405731 10.575634 C15.29693514 14.20993707 18.95487131 17.87800635 22.60238266 21.55778313 C24.65976275 23.63278364 26.72086383 25.70402338 28.7829895 27.77430725 C34.63766642 33.653255 40.48645494 39.53803635 46.33105469 45.42700195 C49.92393736 49.04664208 53.52165738 52.66141511 57.12240982 56.27322578 C58.48865365 57.64567253 59.85299768 59.02001324 61.21538925 60.3962841 C63.11286194 62.31294433 65.01638925 64.22339119 66.92138672 66.13256836 C67.48039169 66.70033493 68.03939667 67.2681015 68.61534119 67.85307312 C72.67000617 71.89759116 75.58317815 74.28201673 81.375 74.3125 C85.61838523 74.18707975 88.48239793 73.53594568 92 71 C95.84025811 65.51997792 96.5620034 61.60393942 96.390625 55.00390625 C96.38213531 53.75358864 96.38213531 53.75358864 96.37347412 52.47801208 C96.35124195 49.83890168 96.30107305 47.2011938 96.25 44.5625 C96.22991787 42.76369161 96.21167011 40.96486174 96.1953125 39.16601562 C96.15142071 34.77681067 96.08248731 30.38864239 96 26 C95.15405273 26.85380249 95.15405273 26.85380249 94.29101562 27.72485352 C91.69673231 30.34011844 89.09840077 32.95132619 86.5 35.5625 C85.613125 36.45775391 84.72625 37.35300781 83.8125 38.27539062 C68.58809589 53.55576681 68.58809589 53.55576681 64 54 C61.421875 51.91015625 61.421875 51.91015625 58.75 49.0625 C57.85796875 48.12535156 56.9659375 47.18820313 56.046875 46.22265625 C55.37140625 45.48917969 54.6959375 44.75570312 54 44 C55.35499342 39.78853397 57.0553554 37.74603287 60.4375 34.9375 C64.26158799 31.62074466 67.7424768 28.20381933 71.125 24.4375 C75.7599001 19.27938706 80.55366673 14.29804975 85.4375 9.375 C86.46738037 8.32590454 86.46738037 8.32590454 87.51806641 7.25561523 C88.17081543 6.60149658 88.82356445 5.94737793 89.49609375 5.2734375 C90.07544678 4.68997559 90.6547998 4.10651367 91.25170898 3.50537109 C95.41439764 -0.07892415 99.17334497 -0.48139691 104.51953125 -0.39453125 C108.55928065 0.24801157 110.25017157 2.0386463 113 5 C114.33257006 7.66514012 114.16407062 9.74345116 114.20874023 12.72802734 C114.22803085 13.9304306 114.24732147 15.13283386 114.26719666 16.37167358 C114.32501094 21.90807816 114.37458775 27.44433299 114.4050293 32.98095703 C114.42273951 35.89287178 114.45738368 38.80379912 114.50756836 41.71533203 C114.56832751 45.2450455 114.59858184 48.77385429 114.60820198 52.3040657 C114.62075506 54.28255646 114.66268648 56.26079225 114.70542908 58.23886108 C114.6832917 68.08416735 112.47399276 76.10633457 105.71141052 83.50326538 C98.47178472 90.44077531 91.99570427 92.52974436 82.1875 92.5 C81.34896484 92.52835937 80.51042969 92.55671875 79.64648438 92.5859375 C70.43239988 92.61426674 63.66079135 88.86577988 57.04443359 82.59619141 C55.31632263 80.86061271 53.60152068 79.11170698 51.8984375 77.3515625 C50.49038325 75.92907109 49.08232701 74.50658162 47.6741581 73.08420372 C45.72374274 71.10762202 43.78527644 69.11951618 41.84649658 67.13153076 C38.45107622 63.65527041 35.03556443 60.1987325 31.62197876 56.74032593 C29.81241532 54.90463776 28.00681809 53.06502829 26.2059021 51.22085571 C21.8750358 46.80518304 17.48029664 42.57704185 12.78311157 38.55331421 C10.23353525 36.33231291 7.87448754 33.96996654 5.5 31.5625 C4.6440625 30.69753906 3.788125 29.83257812 2.90625 28.94140625 C1.96265625 27.98041016 1.96265625 27.98041016 1 27 C0.92561027 32.30188966 0.87128489 37.60347268 0.83520508 42.90576172 C0.8201576 44.70789892 0.7997147 46.50999973 0.77368164 48.31201172 C0.73711979 50.90862021 0.72023319 53.50474275 0.70703125 56.1015625 C0.68380547 57.30191635 0.68380547 57.30191635 0.66011047 58.52651978 C0.65865088 63.42420114 1.27601575 66.7610748 4 71 C8.70755061 74.36253615 13.39736896 74.76776796 19 74 C22.07974388 72.63122494 23.73326248 71.29174416 26 68.8125 C28 67 28 67 30.3203125 66.625 C33.95554852 67.13372108 35.30833358 68.60821063 37.875 71.1875 C38.67679688 71.96480469 39.47859375 72.74210937 40.3046875 73.54296875 C42 76 42 76 41.98046875 78.578125 C40.85262597 81.36403148 39.72677628 82.63162313 37.4375 84.5625 C36.47650391 85.39974609 36.47650391 85.39974609 35.49609375 86.25390625 C28.55022109 91.11275614 23.05065869 92.66653655 14.5625 92.5625 C13.67240234 92.58634766 12.78230469 92.61019531 11.86523438 92.63476562 C5.06928759 92.61987312 0.6046104 90.75136629 -5 87 C-6.3303125 86.13375 -6.3303125 86.13375 -7.6875 85.25 C-13.32756396 79.7623702 -17.54885852 72.99174687 -18.26742554 65.04101562 C-18.27504913 64.00654297 -18.28267273 62.97207031 -18.29052734 61.90625 C-18.30328705 60.72482422 -18.31604675 59.54339844 -18.32919312 58.32617188 C-18.33141876 57.06353516 -18.33364441 55.80089844 -18.3359375 54.5 C-18.3425943 53.19095703 -18.3492511 51.88191406 -18.35610962 50.53320312 C-18.36804654 47.76949767 -18.37179395 45.0059169 -18.37060547 42.2421875 C-18.37040199 38.71146114 -18.39774831 35.18153709 -18.43214989 31.65100098 C-18.45980395 28.2673223 -18.45856856 24.88379015 -18.4609375 21.5 C-18.47530853 20.23736328 -18.48967957 18.97472656 -18.50448608 17.67382812 C-18.44732982 6.69982468 -18.44732982 6.69982468 -14 2 C-9.38597756 -1.07601496 -5.37684955 -1.01622664 0 0 Z " fill="#020C4C" transform="translate(42,44)"/>
</svg>
